<?xml version="1.0" ?><svg id="Layer_1" style="enable-background:new 0 0 24 24;" version="1.1" viewBox="0 0 24 24" xml:space="preserve" xmlns="http://www.w3.org/2000/svg" xmlns:xlink="http://www.w3.org/1999/xlink"><title/><g id="Candy_Stick_1"><g><g><polygon points="6.984,16.86 10.024,18.8 12.584,16.39 9.534,14.45    " style="fill:#F8F8F8;"/><polygon points="9.534,14.45 12.584,16.39 15.134,13.98 12.084,12.04    " style="fill:#D51C29;"/><polygon points="12.084,12.04 15.134,13.98 17.684,11.57 14.634,9.63    " style="fill:#F8F8F8;"/><polygon points="4.454,19.25 7.504,21.19 10.024,18.8 6.984,16.86    " style="fill:#D51C29;"/><path d="M3.004,20.59c-0.666,0.614-0.707,1.652-0.093,2.317C2.941,22.94,2.972,22.97,3.004,23     c0.722,0.66,1.828,0.66,2.55,0l1.95-1.81l-3-1.94L3.004,20.59z" style="fill:#F8F8F8;"/><path d="M21.084,3.71l-3.16,1.62c0.151,0.604-0.036,1.243-0.49,1.67l-0.24,0.23l3,1.93     c1.318-1.489,1.657-3.604,0.87-5.43L21.084,3.71z" style="fill:#F8F8F8;"/><path d="M16.004,0.5c-1.233,0.049-2.411,0.526-3.33,1.35l2,2.89l0.3-0.28     c0.382-0.356,0.902-0.525,1.42-0.46l1.76-3.12C17.472,0.607,16.74,0.477,16.004,0.5z" style="fill:#F8F8F8;"/><path d="M14.634,9.63l3,1.94l2.19-2.06c0.12-0.12,0.23-0.24,0.34-0.36l-3-1.93L14.634,9.63z" style="fill:#D51C29;"/><path d="M19.874,2L19.874,2c-0.494-0.483-1.079-0.863-1.72-1.12L16.394,4c0.375,0.045,0.726,0.21,1,0.47     l0,0c0.244,0.232,0.414,0.532,0.49,0.86l3.16-1.62C20.773,3.067,20.375,2.486,19.874,2z" style="fill:#D51C29;"/><path d="M12.564,1.95l-1.82,1.72c-0.696,0.655-0.729,1.75-0.075,2.445c0.024,0.026,0.049,0.05,0.075,0.075     l0,0c0.684,0.639,1.746,0.639,2.43,0l1.52-1.43l-2-2.89L12.564,1.95z" style="fill:#D51C29;"/></g><path d="M11.744,4.67l1.82-1.72c1.906-1.809,4.854-1.937,6.91-0.3    c-0.182-0.251-0.386-0.485-0.61-0.7l0,0c-2.051-1.928-5.249-1.928-7.3,0l-1.82,1.72c-0.696,0.655-0.729,1.75-0.075,2.445    c0.024,0.026,0.049,0.05,0.075,0.075l0,0c0.165,0.156,0.359,0.278,0.57,0.36C11.06,5.894,11.23,5.15,11.744,4.67z" style="opacity:0.2;fill:#FFFFFF;enable-background:new    ;"/><path d="M4.004,21.59L18.434,8c0.696-0.655,0.729-1.75,0.075-2.445    c-0.024-0.026-0.049-0.05-0.075-0.075l0,0c-0.165-0.156-0.359-0.278-0.57-0.36c0.255,0.656,0.084,1.4-0.43,1.88L3.004,20.59    c-0.666,0.614-0.707,1.652-0.093,2.317C2.941,22.94,2.972,22.97,3.004,23c0.174,0.162,0.378,0.287,0.6,0.37    C3.327,22.754,3.49,22.028,4.004,21.59z" style="opacity:0.2;fill:#FFFFFF;enable-background:new    ;"/><path d="M16.434,3.47c-0.684-0.639-1.746-0.639-2.43,0l-1.83,1.72    c-0.499,0.467-1.222,0.607-1.86,0.36c0.09,0.242,0.234,0.461,0.42,0.64l0,0c0.684,0.639,1.746,0.639,2.43,0l1.84-1.72    c0.499-0.467,1.222-0.607,1.86-0.36c-0.09-0.242-0.234-0.461-0.42-0.64L16.434,3.47z" style="opacity:0.1;enable-background:new    ;"/><path d="M19.874,2L19.874,2c-0.12-0.11-0.26-0.2-0.39-0.3    c1.576,2.108,1.313,5.063-0.61,6.86L4.584,22c-0.347,0.325-0.805,0.504-1.28,0.5c-0.229,0-0.456-0.04-0.67-0.12    c0.076,0.232,0.202,0.443,0.37,0.62c0.722,0.66,1.828,0.66,2.55,0l14.32-13.49c2.085-1.959,2.187-5.237,0.228-7.322    c-0.074-0.078-0.15-0.154-0.228-0.228V2z" style="opacity:0.1;enable-background:new    ;"/><path d="M21.574,3.62c0.007-0.046,0.007-0.094,0-0.14l0,0c-0.593-1.369-1.704-2.448-3.09-3l0,0h-0.05    c-0.767-0.329-1.595-0.493-2.43-0.48c-1.326,0.055-2.593,0.563-3.59,1.44l0,0l-0.17,0.13l-1.84,1.73    c-0.897,0.843-0.941,2.255-0.098,3.152c0.032,0.034,0.064,0.066,0.098,0.098c0.875,0.828,2.245,0.828,3.12,0l1.82-1.72    c0.49-0.466,1.26-0.466,1.75,0c0.494,0.466,0.517,1.244,0.051,1.739c-0.017,0.018-0.034,0.035-0.051,0.051L2.684,20.23    c-0.509,0.464-0.763,1.146-0.68,1.83c0.064,0.501,0.301,0.965,0.67,1.31c0.915,0.844,2.325,0.844,3.24,0l14.3-13.5    C21.933,8.277,22.476,5.782,21.574,3.62z M20.414,3.49l-2.23,1.15c-0.217-0.42-0.569-0.755-1-0.95l1.22-2.16    c0.424,0.205,0.814,0.471,1.16,0.79C19.906,2.664,20.193,3.058,20.414,3.49z M17.624,10.94l-2.18-1.39l1.8-1.7l2.18,1.39    L17.624,10.94z M15.074,13.35L12.894,12l1.8-1.7l2.18,1.39L15.074,13.35z M12.524,15.76l-2.18-1.39l1.8-1.7l2.18,1.39    L12.524,15.76z M10.004,18.17l-2.21-1.39l1.8-1.7l2.18,1.39L10.004,18.17z M7.444,20.56l-2.18-1.39l1.74-1.68l2.18,1.39    L7.444,20.56z M12.834,5.82c-0.492,0.461-1.258,0.461-1.75,0c-0.494-0.466-0.517-1.244-0.051-1.739    c0.017-0.018,0.034-0.035,0.051-0.051l1.51-1.42l1.41,2.07L12.834,5.82z M14.834,4l-1.48-2c0.763-0.592,1.686-0.941,2.65-1    c0.469-0.01,0.937,0.047,1.39,0.17l-1.28,2.32c-0.487,0.021-0.954,0.2-1.33,0.51H14.834z M5.234,22.64    c-0.535,0.468-1.335,0.468-1.87,0c-0.464-0.426-0.495-1.147-0.069-1.611c0.022-0.024,0.045-0.047,0.069-0.069l1.14-1.08l2.18,1.39    L5.234,22.64z M20.094,8.48l-2.09-1.36c0.322-0.392,0.499-0.883,0.5-1.39c0,0,0-0.07,0-0.11l2.33-1.2    c0.111,0.357,0.178,0.727,0.2,1.1C21.068,6.585,20.736,7.629,20.094,8.48z" style="fill:#303C42;"/><linearGradient gradientTransform="matrix(1 0 0 -1 0 24)" gradientUnits="userSpaceOnUse" id="SVGID_1_" x1="6.9695" x2="18.0609" y1="13.7101" y2="8.5395"><stop offset="0" style="stop-color:#FFFFFF;stop-opacity:0.2"/><stop offset="1" style="stop-color:#FFFFFF;stop-opacity:0"/></linearGradient><path d="M20.204,1.58c-2.246-2.118-5.754-2.118-8,0l-1.8,1.72c-0.897,0.843-0.941,2.255-0.098,3.152    c0.032,0.034,0.064,0.066,0.098,0.098c0.875,0.828,2.245,0.828,3.12,0l1.82-1.72c0.49-0.466,1.26-0.466,1.75,0    c0.494,0.466,0.517,1.244,0.051,1.739c-0.017,0.018-0.034,0.035-0.051,0.051L2.684,20.23c-0.509,0.464-0.763,1.146-0.68,1.83    c0.064,0.501,0.301,0.965,0.67,1.31c0.915,0.844,2.325,0.844,3.24,0l14.3-13.5c2.289-2.145,2.406-5.739,0.262-8.028    c-0.084-0.09-0.172-0.177-0.262-0.262L20.204,1.58z" style="fill:url(#SVGID_1_);"/></g></g></svg>