<?xml version="1.0" ?><svg id="Layer_1" style="enable-background:new 0 0 24 24;" version="1.1" viewBox="0 0 24 24" xml:space="preserve" xmlns="http://www.w3.org/2000/svg" xmlns:xlink="http://www.w3.org/1999/xlink"><title/><g id="Wreath"><g><path d="M12,2.5C6.201,2.5,1.5,7.201,1.5,13S6.201,23.5,12,23.5S22.5,18.799,22.5,13S17.799,2.5,12,2.5z     M12,19.5c-3.59,0-6.5-2.91-6.5-6.5S8.41,6.5,12,6.5s6.5,2.91,6.5,6.5S15.59,19.5,12,19.5z" style="fill:#0DB14B;"/><path d="M13.75,21.25c3.59,0.004,6.503-2.903,6.507-6.493    c0.002-2.164-1.073-4.188-2.867-5.397c1.969,3.002,1.131,7.031-1.871,9c-2.164,1.419-4.965,1.419-7.129,0    C9.586,20.154,11.594,21.237,13.75,21.25z" style="opacity:0.2;fill:#FFFFFF;enable-background:new    ;"/><path d="M13.75,4.25c2.356,0,4.643,0.797,6.49,2.26    C16.659,1.956,10.064,1.166,5.51,4.747s-5.344,10.176-1.763,14.73c0.515,0.656,1.107,1.247,1.763,1.763    C1.915,16.697,2.683,10.1,7.226,6.504c1.857-1.47,4.156-2.268,6.524-2.264V4.25z" style="opacity:0.2;fill:#FFFFFF;enable-background:new    ;"/><path d="M22.5,13c0-2.356-0.797-4.643-2.26-6.49    C15.686,2.929,9.091,3.718,5.51,8.273c-2.991,3.805-2.991,9.162,0,12.967c4.547,3.59,11.144,2.814,14.733-1.733    C21.706,17.653,22.501,15.361,22.5,13z M5.5,13c-0.004-3.59,2.903-6.503,6.493-6.507c2.164-0.002,4.188,1.073,5.397,2.867    c3.002,1.969,3.839,5.998,1.871,9s-5.998,3.839-9,1.871c-0.745-0.489-1.382-1.126-1.871-1.871C6.596,17.164,5.513,15.156,5.5,13z" style="opacity:0.1;enable-background:new    ;"/><path d="M18,0.5c-1.22,0-3.3,1.18-4.77,2.65c-0.466-0.678-1.394-0.85-2.072-0.384    C11.025,2.858,10.907,2.97,10.81,3.1l0,0C9.34,1.61,7.22,0.5,6,0.5s-0.5,2.16-0.5,3s-0.19,3,1,3c1.114-0.171,2.196-0.508,3.21-1    l-1.21,3L10,8l0.5,1.5l1.5-4l1.5,4L14,8l1.5,0.5l-1.1-3c0.974,0.495,2.02,0.833,3.1,1c1.19,0,1-2.16,1-3S19.22,0.5,18,0.5z" style="fill:#D51C29;"/><path d="M18.5,13c0.003-1.297-0.383-2.565-1.11-3.64c-3.002-1.969-7.031-1.131-9,1.871    c-1.419,2.164-1.419,4.965,0,7.129c2.985,1.994,7.022,1.19,9.015-1.795C18.111,15.509,18.491,14.27,18.5,13z" style="fill:none;"/><path d="M6,1.5c1.22,0,3.34,1.11,4.81,2.58l0,0    c0.494-0.658,1.428-0.792,2.086-0.298c0.13,0.097,0.242,0.215,0.334,0.348C14.7,2.68,16.78,1.5,18,1.5c0.42,0,0.6,0.26,0.67,0.63    C18.77,1.31,18.75,0.5,18,0.5c-1.22,0-3.3,1.18-4.77,2.65c-0.466-0.678-1.394-0.85-2.072-0.384    C11.025,2.858,10.907,2.97,10.81,3.1l0,0C9.34,1.61,7.22,0.5,6,0.5c-0.75,0-0.76,0.81-0.67,1.63C5.4,1.76,5.58,1.5,6,1.5z" style="opacity:0.2;fill:#FFFFFF;enable-background:new    ;"/><circle cx="4" cy="13" r="2.5" style="fill:#D51C29;"/><circle cx="3.5" cy="12.5" r="1" style="opacity:0.2;fill:#FFFFFF;enable-background:new    ;"/><circle cx="20" cy="13" r="2.5" style="fill:#D51C29;"/><circle cx="12" cy="21" r="2.5" style="fill:#D51C29;"/><g><path d="M23,13.11V13c0,0,0-0.07,0-0.11c-0.023-2.882-1.175-5.639-3.21-7.68     C19.551,5.002,19.285,4.827,19,4.69c0-0.31,0-0.62,0-0.88V3.5c0.011-0.245,0.037-0.489,0.08-0.73c0.13-0.86,0.28-1.83-0.21-2.4     C18.65,0.123,18.331-0.013,18,0c-1.23,0-3.2,1-4.75,2.45c-0.717-0.548-1.713-0.548-2.43,0C9.519,1.135,7.829,0.276,6,0     C5.664-0.013,5.341,0.127,5.12,0.38c-0.48,0.56-0.34,1.54-0.21,2.4C4.956,3.018,4.986,3.258,5,3.5v0.3c0,0.25,0,0.55,0,0.85     C4.716,4.805,4.454,4.997,4.22,5.22C2.182,7.259,1.025,10.017,1,12.9V13c0,0,0,0.06,0,0.1C1.054,19.097,5.903,23.946,11.9,24h0.2     C18.093,23.946,22.94,19.103,23,13.11z M12.08,23h-0.17c-1.104-0.047-1.96-0.98-1.913-2.083c0.047-1.104,0.98-1.96,2.083-1.913     s1.96,0.98,1.913,2.083C13.949,22.125,13.118,22.956,12.08,23z M13.88,18.69c-1.088-0.91-2.672-0.91-3.76,0     c-1.795-0.597-3.203-2.005-3.8-3.8c0.91-1.088,0.91-2.672,0-3.76C6.643,10.131,7.222,9.235,8,8.53     c0.002,0.114,0.044,0.224,0.12,0.31C8.25,8.999,8.464,9.063,8.66,9l1-0.34l0.34,1c0.067,0.199,0.251,0.334,0.46,0.34l0,0     c0.233,0.034,0.458-0.1,0.54-0.32l1-2.75l1,2.75c0.075,0.194,0.262,0.321,0.47,0.32l0,0c0.235,0.026,0.456-0.116,0.53-0.34     l0.34-1l1,0.34c0.184,0.061,0.386,0.01,0.52-0.13C15.95,8.78,16,8.657,16,8.53c0.784,0.7,1.37,1.593,1.7,2.59     c-0.91,1.088-0.91,2.672,0,3.76c-0.601,1.799-2.018,3.208-3.82,3.8V18.69z M2,12.93c0.036-1.104,0.96-1.97,2.064-1.934     c1.104,0.036,1.97,0.96,1.934,2.064c-0.036,1.104-0.96,1.97-2.064,1.934C2.88,14.96,2.034,14.114,2,13.06C2,13.06,2,13,2,12.93z      M13.31,5.5l0.67,0.33l0.69,1.87l-0.51-0.17c-0.262-0.085-0.544,0.058-0.63,0.32L13.47,8l-0.8-2.13     C12.904,5.788,13.122,5.662,13.31,5.5z M10.76,5.55c0.171,0.137,0.364,0.245,0.57,0.32L10.53,8l-0.05-0.16     c-0.086-0.262-0.368-0.405-0.63-0.32L9.36,7.68l0.71-1.82L10.76,5.55z M18,13c-0.025-1.105,0.85-2.02,1.955-2.045     s2.02,0.85,2.045,1.955c0,0.06,0,0.12,0,0.18c-0.025,1.105-0.94,1.98-2.045,1.955S17.975,14.105,18,13z M19.07,5.93     c1.263,1.265,2.162,2.847,2.6,4.58c-0.953-0.632-2.183-0.667-3.17-0.09c-0.589-1.48-1.665-2.714-3.05-3.5l-0.2-0.53     C15.962,6.714,16.722,6.92,17.5,7c0.343,0.003,0.672-0.134,0.91-0.38c0.218-0.244,0.369-0.541,0.44-0.86     C18.927,5.812,19,5.869,19.07,5.93z M18.07,1.03c0.19,0.22,0,1.11,0,1.59c-0.053,0.291-0.086,0.585-0.1,0.88v0.32     c0,0.57,0,1.75-0.31,2.1S15.9,5.59,14.59,5l0,0l-0.7-0.33c0.181-0.456,0.181-0.964,0-1.42C15.21,2,17,1,18,1     c0.038-0.016,0.082-0.016,0.12,0L18.07,1.03z M13,4c0,0.552-0.448,1-1,1s-1-0.448-1-1s0.448-1,1-1S13,3.448,13,4z M5.88,1     C5.918,0.984,5.962,0.984,6,1c1.585,0.278,3.045,1.04,4.18,2.18c-0.211,0.499-0.211,1.061,0,1.56C8.72,5.39,6.59,6.21,6.3,5.92     S6,4.39,6,3.82V3.5C5.986,3.205,5.953,2.911,5.9,2.62C5.83,2.14,5.7,1.24,5.88,1z M4.88,5.91L5.1,5.72     c0.072,0.324,0.227,0.624,0.45,0.87C5.793,6.857,6.139,7.007,6.5,7c0.786-0.082,1.555-0.284,2.28-0.6L8.59,6.9     C7.186,7.684,6.095,8.927,5.5,10.42c-0.989-0.574-2.219-0.535-3.17,0.1c0.434-1.733,1.329-3.315,2.59-4.58L4.88,5.91z      M2.33,15.49c0.956,0.636,2.19,0.671,3.18,0.09c0.712,1.785,2.125,3.198,3.91,3.91c-0.581,0.99-0.546,2.224,0.09,3.18     C5.979,21.778,3.222,19.021,2.33,15.49z M14.49,22.67c0.636-0.956,0.671-2.19,0.09-3.18c1.785-0.712,3.198-2.125,3.91-3.91     c0.99,0.581,2.224,0.546,3.18-0.09C20.78,19.022,18.022,21.78,14.49,22.67z" style="fill:#303C42;"/><path d="M17.22,19.05c-0.246-0.123-0.545-0.025-0.67,0.22l-0.5,1c-0.106,0.255,0.014,0.548,0.269,0.654     c0.229,0.095,0.493,0.009,0.621-0.204l0.5-1C17.563,19.474,17.465,19.175,17.22,19.05z" style="fill:#303C42;"/><path d="M19.28,16.55l-1,0.5c-0.237,0.142-0.313,0.45-0.171,0.686c0.128,0.212,0.392,0.299,0.621,0.204     l1-0.5c0.237-0.142,0.313-0.45,0.171-0.686C19.773,16.541,19.509,16.455,19.28,16.55z" style="fill:#303C42;"/><path d="M7.95,19.78c-0.106-0.255-0.399-0.376-0.654-0.269c-0.255,0.106-0.376,0.399-0.269,0.654     c0.009,0.023,0.021,0.045,0.033,0.066l0.5,1c0.142,0.237,0.45,0.313,0.686,0.171c0.212-0.128,0.299-0.392,0.204-0.621L7.95,19.78     z" style="fill:#303C42;"/><path d="M5.72,17.55l-1-0.5c-0.255-0.106-0.548,0.014-0.654,0.269c-0.095,0.229-0.009,0.493,0.204,0.621     l1,0.5c0.237,0.142,0.544,0.066,0.686-0.171c0.142-0.237,0.066-0.544-0.171-0.686C5.765,17.571,5.743,17.559,5.72,17.55z" style="fill:#303C42;"/><path d="M4.5,9c0.076,0,0.151-0.017,0.22-0.05l1-0.5c0.255-0.106,0.376-0.399,0.269-0.654     C5.883,7.541,5.591,7.421,5.336,7.527C5.313,7.536,5.291,7.547,5.27,7.56l-1,0.5C4.027,8.191,3.936,8.494,4.067,8.737     C4.153,8.897,4.319,8.997,4.5,9z" style="fill:#303C42;"/><path d="M18.05,7.72l0.5,1c0.106,0.255,0.399,0.376,0.654,0.269c0.255-0.106,0.376-0.399,0.269-0.654     c-0.009-0.023-0.021-0.045-0.033-0.066l-0.5-1c-0.106-0.255-0.399-0.376-0.654-0.269c-0.255,0.106-0.376,0.399-0.269,0.654     C18.026,7.677,18.037,7.699,18.05,7.72z" style="fill:#303C42;"/></g><circle cx="19.5" cy="12.5" r="1" style="opacity:0.2;fill:#FFFFFF;enable-background:new    ;"/><circle cx="11.5" cy="20.5" r="1" style="opacity:0.2;fill:#FFFFFF;enable-background:new    ;"/><linearGradient gradientTransform="matrix(1 0 0 -1 0 24)" gradientUnits="userSpaceOnUse" id="SVGID_1_" x1="2.203" x2="22.6979" y1="17.4674" y2="7.9051"><stop offset="0" style="stop-color:#FFFFFF;stop-opacity:0.2"/><stop offset="1" style="stop-color:#FFFFFF;stop-opacity:0"/></linearGradient><path d="M23,12.89c-0.023-2.882-1.175-5.639-3.21-7.68C19.551,5.002,19.285,4.827,19,4.69    c0-0.31,0-0.62,0-0.88V3.5c0.011-0.245,0.037-0.489,0.08-0.73c0.13-0.86,0.28-1.83-0.21-2.4C18.65,0.123,18.331-0.013,18,0    c-1.23,0-3.2,1-4.75,2.45c-0.717-0.548-1.713-0.548-2.43,0C9.519,1.135,7.829,0.276,6,0C5.664-0.013,5.341,0.127,5.12,0.38    c-0.48,0.56-0.34,1.54-0.21,2.4C4.956,3.018,4.986,3.258,5,3.5v0.3c0,0.25,0,0.55,0,0.85C4.716,4.805,4.454,4.997,4.22,5.22    C2.182,7.259,1.025,10.017,1,12.9V13c0,0,0,0.06,0,0.1C1.054,19.097,5.903,23.946,11.9,24h0.2c5.993-0.054,10.84-4.897,10.9-10.89    V13C23,13,23,12.93,23,12.89z M17.69,14.89c-0.597,1.795-2.005,3.203-3.8,3.8c-1.088-0.91-2.672-0.91-3.76,0    c-1.795-0.597-3.203-2.005-3.8-3.8c0.91-1.088,0.91-2.672,0-3.76C6.65,10.132,7.226,9.236,8,8.53    c0.002,0.114,0.044,0.224,0.12,0.31C8.25,8.999,8.464,9.063,8.66,9l1-0.34l0.34,1c0.067,0.199,0.251,0.334,0.46,0.34l0,0    c0.233,0.034,0.458-0.1,0.54-0.32l1-2.75l1,2.75c0.075,0.194,0.262,0.321,0.47,0.32l0,0c0.235,0.026,0.456-0.116,0.53-0.34l0.34-1    l1,0.34c0.184,0.061,0.386,0.01,0.52-0.13C15.95,8.78,16,8.657,16,8.53c0.784,0.7,1.37,1.593,1.7,2.59    c-0.91,1.088-0.91,2.672,0,3.76L17.69,14.89z" style="fill:url(#SVGID_1_);"/></g></g></svg>